<svg width="24" height="24" viewBox="0 0 24 24" fill="none" xmlns="http://www.w3.org/2000/svg">
<path d="M6 5.5C6 5.36739 6.05268 5.24021 6.14645 5.14645C6.24021 5.05268 6.36739 5 6.5 5C6.63261 5 6.75979 5.05268 6.85355 5.14645C6.94732 5.24021 7 5.36739 7 5.5V17.5C7 17.6326 6.94732 17.7598 6.85355 17.8536C6.75979 17.9473 6.63261 18 6.5 18C6.36739 18 6.24021 17.9473 6.14645 17.8536C6.05268 17.7598 6 17.6326 6 17.5V5.5Z" fill="#1B1F24"/>
<path d="M12.25 15C12.4489 15 12.6397 14.921 12.7803 14.7803C12.921 14.6397 13 14.4489 13 14.25V8.75C13 8.55109 12.921 8.36032 12.7803 8.21967C12.6397 8.07902 12.4489 8 12.25 8H11.75C11.5511 8 11.3603 8.07902 11.2197 8.21967C11.079 8.36032 11 8.55109 11 8.75V14.25C11 14.664 11.336 15 11.75 15H12.25Z" fill="#1B1F24"/>
<path d="M17 5.5C17 5.36739 17.0527 5.24021 17.1464 5.14645C17.2402 5.05268 17.3674 5 17.5 5C17.6326 5 17.7598 5.05268 17.8536 5.14645C17.9473 5.24021 18 5.36739 18 5.5V17.5C18 17.6326 17.9473 17.7598 17.8536 17.8536C17.7598 17.9473 17.6326 18 17.5 18C17.3674 18 17.2402 17.9473 17.1464 17.8536C17.0527 17.7598 17 17.6326 17 17.5V5.5Z" fill="#1B1F24"/>
</svg>
