<svg width="24" height="24" viewBox="0 0 24 24" fill="none" xmlns="http://www.w3.org/2000/svg">
<path d="M15.835 13.5C15.9339 13.5 16.0266 13.5509 16.0742 13.6377C16.2786 14.0068 16.3808 14.4456 16.3809 14.9541C16.3809 15.6271 16.2001 16.2329 15.8379 16.7705C15.4757 17.3039 14.9574 17.7263 14.2842 18.0381C13.6111 18.3457 12.8079 18.5 11.875 18.5C10.993 18.5 10.2277 18.3601 9.58008 18.0811C8.93264 17.798 8.42082 17.4066 8.0459 16.9062C7.79444 16.5639 7.6171 16.1849 7.5127 15.7705C7.43084 15.4454 7.69991 15.1572 8.03516 15.1572C8.33391 15.1573 8.57389 15.3897 8.66016 15.6758C8.74649 15.9627 8.88506 16.2193 9.0752 16.4443C9.3734 16.7929 9.76383 17.0595 10.2451 17.2441C10.7307 17.4246 11.2744 17.5156 11.875 17.5156C12.5394 17.5156 13.1275 17.4085 13.6387 17.1953C14.1542 16.9779 14.5595 16.6757 14.8535 16.29C15.1474 15.9044 15.2939 15.4552 15.2939 14.9424C15.2939 14.5115 15.1793 14.148 14.9492 13.8525C14.8481 13.72 14.9329 13.5 15.0996 13.5H15.835ZM11.9893 5.5C12.7988 5.5 13.513 5.64624 14.1309 5.9375C14.7529 6.2247 15.2452 6.62039 15.6074 7.125C15.8598 7.4697 16.0332 7.84794 16.126 8.25879C16.1956 8.56846 15.9367 8.83589 15.6191 8.83594C15.3334 8.83594 15.1015 8.61653 15.0195 8.34277C14.8725 7.85107 14.5802 7.44307 14.1436 7.11914C13.5683 6.6884 12.8416 6.47266 11.9639 6.47266C11.3505 6.47273 10.8068 6.57693 10.334 6.78613C9.8654 6.9913 9.49852 7.27472 9.23438 7.63574C8.9703 7.99678 8.83888 8.40948 8.83887 8.87305C8.83887 9.20122 8.91088 9.49271 9.05566 9.74707C9.20045 9.99721 9.39663 10.2148 9.64355 10.3994C9.89487 10.584 10.1764 10.7427 10.4873 10.874C10.8025 11.0053 11.1268 11.1176 11.459 11.2119L12.5107 11.5H18.5C18.7761 11.5 19 11.7239 19 12C19 12.2761 18.7761 12.5 18.5 12.5H5.5C5.22386 12.5 5 12.2761 5 12C5 11.7239 5.22386 11.5 5.5 11.5H9.44043C9.11772 11.3192 8.83505 11.1202 8.5957 10.8984C8.03333 10.3773 7.75195 9.71612 7.75195 8.91602C7.75199 8.24326 7.93965 7.65051 8.31445 7.1377C8.6894 6.62483 9.19687 6.22474 9.83594 5.9375C10.4749 5.64628 11.1927 5.5001 11.9893 5.5Z" fill="#1B1F24" fill-opacity="0.9"/>
</svg>
