<svg width="24" height="24" viewBox="0 0 24 24" fill="none" xmlns="http://www.w3.org/2000/svg">
<path fill-rule="evenodd" clip-rule="evenodd" d="M7 7C7 8.043 7.533 8.963 8.341 9.5C7.92839 9.77354 7.58996 10.145 7.35596 10.5813C7.12195 11.0175 6.99966 11.505 7 12C7 13.043 7.533 13.963 8.341 14.5C7.90886 14.7868 7.55846 15.1808 7.32401 15.6434C7.08955 16.1061 6.97905 16.6216 7.00328 17.1397C7.02751 17.6578 7.18564 18.1608 7.46226 18.5995C7.73887 19.0382 8.1245 19.3978 8.58153 19.643C9.03855 19.8882 9.55134 20.0108 10.0699 19.9987C10.5884 19.9867 11.0949 19.8403 11.54 19.5741C11.9851 19.3078 12.3536 18.9307 12.6095 18.4796C12.8654 18.0284 12.9999 17.5187 13 17V14.236C13.3072 14.5104 13.6677 14.7186 14.0589 14.8476C14.4502 14.9765 14.8638 15.0236 15.274 14.9857C15.6841 14.9479 16.0822 14.826 16.4432 14.6276C16.8042 14.4292 17.1205 14.1585 17.3723 13.8326C17.6242 13.5066 17.8062 13.1322 17.907 12.7328C18.0079 12.3334 18.0254 11.9175 17.9585 11.5111C17.8915 11.1046 17.7416 10.7163 17.5181 10.3703C17.2945 10.0243 17.0021 9.72803 16.659 9.5C17.1961 9.14372 17.6042 8.62394 17.8228 8.01763C18.0415 7.41132 18.059 6.75071 17.8729 6.13365C17.6867 5.51658 17.3068 4.97586 16.7894 4.59157C16.272 4.20728 15.6445 3.99985 15 4H10C9.20435 4 8.44129 4.31607 7.87868 4.87868C7.31607 5.44129 7 6.20435 7 7ZM15 9C15.5304 9 16.0391 8.78929 16.4142 8.41421C16.7893 8.03914 17 7.53043 17 7C17 6.46957 16.7893 5.96086 16.4142 5.58579C16.0391 5.21071 15.5304 5 15 5H13V9H15ZM13 12C13 12.5304 13.2107 13.0391 13.5858 13.4142C13.9609 13.7893 14.4696 14 15 14C15.5304 14 16.0391 13.7893 16.4142 13.4142C16.7893 13.0391 17 12.5304 17 12C17 11.4696 16.7893 10.9609 16.4142 10.5858C16.0391 10.2107 15.5304 10 15 10C14.4696 10 13.9609 10.2107 13.5858 10.5858C13.2107 10.9609 13 11.4696 13 12ZM12 14H10C9.46957 14 8.96086 13.7893 8.58579 13.4142C8.21071 13.0391 8 12.5304 8 12C8 11.4696 8.21071 10.9609 8.58579 10.5858C8.96086 10.2107 9.46957 10 10 10H12V14ZM10 15H12V17C12 17.3956 11.8827 17.7822 11.6629 18.1111C11.4432 18.44 11.1308 18.6964 10.7654 18.8478C10.3999 18.9991 9.99778 19.0387 9.60982 18.9616C9.22186 18.8844 8.86549 18.6939 8.58579 18.4142C8.30608 18.1345 8.1156 17.7781 8.03843 17.3902C7.96126 17.0022 8.00087 16.6001 8.15224 16.2346C8.30362 15.8692 8.55996 15.5568 8.88886 15.3371C9.21776 15.1173 9.60444 15 10 15ZM12 9H10C9.46957 9 8.96086 8.78929 8.58579 8.41421C8.21071 8.03914 8 7.53043 8 7C8 6.46957 8.21071 5.96086 8.58579 5.58579C8.96086 5.21071 9.46957 5 10 5H12V9Z" fill="#1B1F24"/>
</svg>
