<svg width="24" height="24" viewBox="0 0 24 24" fill="none" xmlns="http://www.w3.org/2000/svg">
<path d="M14.8818 6.60254C15.0995 6.60258 15.2872 6.64321 15.4443 6.72461C15.6012 6.8041 15.7225 6.91382 15.8076 7.05371C15.8926 7.19179 15.9355 7.34747 15.9355 7.51953C15.9354 7.75036 15.85 7.94027 15.6797 8.08789C15.5112 8.23353 15.2357 8.30659 14.8535 8.30664H13.7197V6.60254H14.8818Z" fill="#1B1F24"/>
<path d="M14.7852 4.23828C15.0954 4.23832 15.3292 4.31144 15.4863 4.45703C15.6453 4.60283 15.7256 4.78938 15.7256 5.01465C15.7254 5.18455 15.6826 5.33234 15.5977 5.45703C15.5144 5.5799 15.3995 5.67603 15.2539 5.74414C15.1081 5.81037 14.9435 5.84375 14.7617 5.84375H13.7197V4.23828H14.7852Z" fill="#1B1F24"/>
<path fill-rule="evenodd" clip-rule="evenodd" d="M14.125 1.18652C16.8173 1.18666 18.9999 3.37017 19 6.0625C18.9999 6.99488 18.7373 7.86572 18.2832 8.60645H18.3096C18.3073 8.61303 18.3051 8.62039 18.3027 8.62695C18.0438 9.34457 17.5606 9.96012 16.9248 10.3818C17.3309 10.6518 17.6777 11.0026 17.9424 11.4121C18.207 11.8217 18.3846 12.2825 18.4639 12.7637C18.5429 13.2447 18.5226 13.7373 18.4033 14.21C18.2839 14.6826 18.0676 15.1259 17.7695 15.5117C17.4715 15.8974 17.0971 16.2183 16.6699 16.4531C16.2426 16.6879 15.7707 16.8322 15.2852 16.877C14.7996 16.9217 14.3097 16.8665 13.8467 16.7139C13.3835 16.5611 12.9565 16.3141 12.5928 15.9893V19.2627C12.5925 19.8765 12.4337 20.4807 12.1309 21.0146C11.8279 21.5485 11.3911 21.9954 10.8643 22.3105C10.3374 22.6256 9.73676 22.7982 9.12305 22.8125C8.50937 22.8267 7.90222 22.6818 7.36133 22.3916C6.82033 22.1013 6.36362 21.6756 6.03613 21.1562C5.7087 20.6369 5.52095 20.041 5.49219 19.4277C5.46352 18.8146 5.59472 18.2038 5.87207 17.6562C6.14952 17.1088 6.5649 16.6423 7.07617 16.3027C6.11961 15.667 5.48845 14.5765 5.48828 13.3418C5.48795 12.756 5.63334 12.1784 5.91016 11.6621C6.18712 11.1459 6.58794 10.7056 7.07617 10.3818C6.44157 9.95996 5.95215 9.33755 5.69336 8.60645H5.7168C5.2627 7.86572 5.00009 6.99488 5 6.0625C5.00013 3.37017 7.18267 1.18666 9.875 1.18652H14.125ZM9.04102 16.8945C8.57297 16.8946 8.11481 17.033 7.72559 17.293C7.33638 17.5532 7.0317 17.9239 6.85254 18.3564C6.67363 18.7889 6.62647 19.2656 6.71777 19.7246C6.8092 20.1837 7.03528 20.6055 7.36621 20.9365C7.69732 21.2676 8.11987 21.4936 8.5791 21.585C9.0382 21.6762 9.51478 21.6292 9.94727 21.4502C10.3797 21.271 10.7496 20.9672 11.0098 20.5781C11.2698 20.1889 11.409 19.7308 11.4092 19.2627V16.8945H9.04102ZM9.04102 10.9746C8.41309 10.9747 7.81023 11.224 7.36621 11.668C6.92257 12.1119 6.67297 12.7142 6.67285 13.3418C6.67298 13.9696 6.92229 14.5726 7.36621 15.0166C7.81022 15.4606 8.41312 15.7099 9.04102 15.71H11.4092V10.9746H9.04102ZM14.9609 10.9746C14.333 10.9747 13.7302 11.224 13.2861 11.668C12.8426 12.1119 12.5929 12.7142 12.5928 13.3418C12.5929 13.9696 12.8423 14.5726 13.2861 15.0166C13.7301 15.4606 14.333 15.7099 14.9609 15.71C15.5888 15.71 16.1917 15.4604 16.6357 15.0166C17.0796 14.5726 17.329 13.9696 17.3291 13.3418C17.329 12.7141 17.0795 12.1119 16.6357 11.668C16.1917 11.2239 15.589 10.9746 14.9609 10.9746ZM6.96875 4.25293H8.7666V9.1875H9.8125V4.25293H11.6104V3.36914H6.96875V4.25293ZM12.666 9.1875H15.0205C15.4655 9.1875 15.8354 9.11867 16.1289 8.98047C16.4223 8.84229 16.6423 8.65347 16.7881 8.41504C16.9338 8.17471 17.0067 7.90337 17.0068 7.60254C17.0068 7.30726 16.9453 7.05494 16.8242 6.84668C16.7031 6.63849 16.5466 6.47689 16.3555 6.36328C16.1662 6.24794 15.968 6.18421 15.7617 6.17285V6.11621C15.951 6.07078 16.123 5.99569 16.2764 5.8916C16.4296 5.78753 16.5517 5.65177 16.6426 5.48535C16.7333 5.31697 16.7792 5.11432 16.7793 4.87793C16.7793 4.59037 16.7092 4.33255 16.5693 4.10547C16.4312 3.87832 16.2215 3.69902 15.9414 3.56836C15.663 3.43578 15.313 3.36914 14.8926 3.36914H12.666V9.1875Z" fill="#1B1F24"/>
</svg>
