<svg width="30" height="30" viewBox="0 0 30 30" fill="none" xmlns="http://www.w3.org/2000/svg">
<path fill-rule="evenodd" clip-rule="evenodd" d="M15 0C23.2843 0 30 6.71573 30 15C30 23.2843 23.2843 30 15 30C6.71573 30 0 23.2843 0 15C0 6.71573 6.71573 0 15 0ZM5.52246 7.64355C3.94295 9.67555 3 12.227 3 15C3 21.6274 8.37258 27 15 27C17.7729 27 20.3235 26.056 22.3555 24.4766L5.52246 7.64355ZM15 3C12.227 3 9.67555 3.94295 7.64355 5.52246L24.4766 22.3555C26.056 20.3235 27 17.7729 27 15C27 8.37258 21.6274 3 15 3Z" fill="black"/>
</svg>
