<svg width="24" height="24" viewBox="0 0 24 24" fill="none" xmlns="http://www.w3.org/2000/svg">
<path fill-rule="evenodd" clip-rule="evenodd" d="M14.9999 18.5C14.9999 18.6326 15.0526 18.7598 15.1464 18.8536C15.2402 18.9473 15.3673 19 15.4999 19C15.6326 19 15.7597 18.9473 15.8535 18.8536C15.9473 18.7598 15.9999 18.6326 15.9999 18.5V11.95C16.5651 11.8352 17.0732 11.5286 17.4381 11.0821C17.8031 10.6356 18.0024 10.0767 18.0024 9.5C18.0024 8.92332 17.8031 8.36438 17.4381 7.91787C17.0732 7.47136 16.5651 7.16476 15.9999 7.05V5.5C15.9999 5.36739 15.9473 5.24021 15.8535 5.14645C15.7597 5.05268 15.6326 5 15.4999 5C15.3673 5 15.2402 5.05268 15.1464 5.14645C15.0526 5.24021 14.9999 5.36739 14.9999 5.5V7.05C14.4348 7.16476 13.9267 7.47136 13.5618 7.91787C13.1968 8.36438 12.9974 8.92332 12.9974 9.5C12.9974 10.0767 13.1968 10.6356 13.5618 11.0821C13.9267 11.5286 14.4348 11.8352 14.9999 11.95V18.5ZM13.9999 9.5C13.9999 9.89782 14.158 10.2794 14.4393 10.5607C14.7206 10.842 15.1021 11 15.4999 11C15.8978 11 16.2793 10.842 16.5606 10.5607C16.8419 10.2794 16.9999 9.89782 16.9999 9.5C16.9999 9.10218 16.8419 8.72064 16.5606 8.43934C16.2793 8.15804 15.8978 8 15.4999 8C15.1021 8 14.7206 8.15804 14.4393 8.43934C14.158 8.72064 13.9999 9.10218 13.9999 9.5ZM7.99994 5.5C7.99994 5.36739 8.05262 5.24021 8.14639 5.14645C8.24016 5.05268 8.36733 5 8.49994 5C8.63255 5 8.75973 5.05268 8.8535 5.14645C8.94726 5.24021 8.99994 5.36739 8.99994 5.5V12.05C9.56509 12.1648 10.0732 12.4714 10.4381 12.9179C10.8031 13.3644 11.0024 13.9233 11.0024 14.5C11.0024 15.0767 10.8031 15.6356 10.4381 16.0821C10.0732 16.5286 9.56509 16.8352 8.99994 16.95V18.5C8.99994 18.6326 8.94726 18.7598 8.8535 18.8536C8.75973 18.9473 8.63255 19 8.49994 19C8.36733 19 8.24016 18.9473 8.14639 18.8536C8.05262 18.7598 7.99994 18.6326 7.99994 18.5V16.95C7.4348 16.8352 6.92671 16.5286 6.56175 16.0821C6.1968 15.6356 5.99744 15.0767 5.99744 14.5C5.99744 13.9233 6.1968 13.3644 6.56175 12.9179C6.92671 12.4714 7.4348 12.1648 7.99994 12.05V5.5ZM6.99994 14.5C6.99994 14.1022 7.15798 13.7206 7.43928 13.4393C7.72059 13.158 8.10212 13 8.49994 13C8.89777 13 9.2793 13.158 9.5606 13.4393C9.84191 13.7206 9.99994 14.1022 9.99994 14.5C9.99994 14.8978 9.84191 15.2794 9.5606 15.5607C9.2793 15.842 8.89777 16 8.49994 16C8.10212 16 7.72059 15.842 7.43928 15.5607C7.15798 15.2794 6.99994 14.8978 6.99994 14.5Z" fill="#1B1F24"/>
</svg>
