<svg width="24" height="24" viewBox="0 0 24 24" fill="none" xmlns="http://www.w3.org/2000/svg">
<path fill-rule="evenodd" clip-rule="evenodd" d="M17.52 6.47097C17.3693 6.32014 17.1903 6.20054 16.9933 6.11903C16.7963 6.03753 16.5851 5.99571 16.3719 5.99599C16.1587 5.99627 15.9476 6.03864 15.7508 6.12066C15.554 6.20268 15.3753 6.32275 15.225 6.47397L13.355 8.35397L13.001 8.70897L12.646 8.35497L12.636 8.34497C12.4673 8.17643 12.2385 8.08176 12 8.08176C11.7615 8.08176 11.5328 8.17643 11.364 8.34497L11.344 8.36497C11.2604 8.44855 11.1941 8.54778 11.1488 8.65699C11.1036 8.7662 11.0803 8.88326 11.0803 9.00147C11.0803 9.11969 11.1036 9.23674 11.1488 9.34595C11.1941 9.45517 11.2604 9.55439 11.344 9.63797L11.854 10.148L13.854 12.148L14.364 12.658C14.5328 12.8265 14.7615 12.9212 15 12.9212C15.2385 12.9212 15.4672 12.8265 15.636 12.658L15.656 12.638C15.7396 12.5544 15.8059 12.4552 15.8512 12.346C15.8964 12.2367 15.9197 12.1197 15.9197 12.0015C15.9197 11.8833 15.8964 11.7662 15.8512 11.657C15.8059 11.5478 15.7396 11.4485 15.656 11.365L15.646 11.355L15.294 11.002L15.645 10.649L17.524 8.76097C17.8271 8.45681 17.997 8.04475 17.9965 7.61535C17.9959 7.18595 17.8239 6.77434 17.52 6.47097ZM14.517 5.76897C14.7597 5.52491 15.0482 5.33105 15.3659 5.19846C15.6835 5.06587 16.0242 4.99715 16.3684 4.99623C16.7127 4.9953 17.0537 5.06218 17.3721 5.19305C17.6905 5.32392 17.9799 5.51622 18.224 5.75897C18.4681 6.00172 18.6619 6.29016 18.7945 6.60783C18.9271 6.9255 18.9958 7.26617 18.9967 7.6104C18.9977 7.95463 18.9308 8.29566 18.7999 8.61404C18.6691 8.93242 18.4767 9.22191 18.234 9.46597L16.664 11.045C16.875 11.4077 16.96 11.83 16.9057 12.2461C16.8514 12.6621 16.661 13.0485 16.364 13.345L16.344 13.365C15.9877 13.7213 15.5044 13.9215 15.0005 13.9215C14.4966 13.9215 14.0133 13.7213 13.657 13.365L13.501 13.208L7.854 18.85C7.76046 18.9438 7.6335 18.9967 7.501 18.997H5.504C5.37139 18.997 5.24422 18.9443 5.15045 18.8505C5.05668 18.7568 5.004 18.6296 5.004 18.497L5 16.503C4.99988 16.4373 5.01272 16.3722 5.03777 16.3114C5.06282 16.2507 5.0996 16.1955 5.146 16.149L10.793 10.502L10.636 10.346C10.2797 9.98965 10.0795 9.50638 10.0795 9.00247C10.0795 8.49856 10.2797 8.01529 10.636 7.65897L10.656 7.63897C10.9524 7.34225 11.3386 7.15193 11.7544 7.09766C12.1703 7.0434 12.5924 7.12824 12.955 7.33897L14.517 5.76897ZM11.501 11.209L12.794 12.501L7.294 17.997H6.004L6 16.707L11.501 11.209Z" fill="#1B1F24"/>
</svg>
