<svg width="24" height="24" viewBox="0 0 24 24" fill="none" xmlns="http://www.w3.org/2000/svg">
<path fill-rule="evenodd" clip-rule="evenodd" d="M6 7.5C6 7.36739 6.05268 7.24021 6.14645 7.14645C6.24021 7.05268 6.36739 7 6.5 7H16.5C16.6326 7 16.7598 7.05268 16.8536 7.14645C16.9473 7.24021 17 7.36739 17 7.5V9.5C17 9.63261 16.9473 9.75979 16.8536 9.85355C16.7598 9.94732 16.6326 10 16.5 10C16.3674 10 16.2402 9.94732 16.1464 9.85355C16.0527 9.75979 16 9.63261 16 9.5V8H12V16H13.5C13.6326 16 13.7598 16.0527 13.8536 16.1464C13.9473 16.2402 14 16.3674 14 16.5C14 16.6326 13.9473 16.7598 13.8536 16.8536C13.7598 16.9473 13.6326 17 13.5 17H9.5C9.36739 17 9.24021 16.9473 9.14645 16.8536C9.05268 16.7598 9 16.6326 9 16.5C9 16.3674 9.05268 16.2402 9.14645 16.1464C9.24021 16.0527 9.36739 16 9.5 16H11V8H7V9.5C7 9.63261 6.94732 9.75979 6.85355 9.85355C6.75979 9.94732 6.63261 10 6.5 10C6.36739 10 6.24021 9.94732 6.14645 9.85355C6.05268 9.75979 6 9.63261 6 9.5V7.5Z" fill="#1B1F24"/>
</svg>
