<svg width="24" height="24" viewBox="0 0 24 24" fill="none" xmlns="http://www.w3.org/2000/svg">
<path d="M17.5 17C17.7761 17 18 17.2239 18 17.5C18 17.7761 17.7761 18 17.5 18H5.5C5.22386 18 5 17.7761 5 17.5C5 17.2239 5.22386 17 5.5 17H17.5ZM11.2246 8.08203C11.4187 7.95387 11.6827 7.97562 11.8535 8.14648L13.8535 10.1465C14.0488 10.3417 14.0488 10.6583 13.8535 10.8535C13.6583 11.0488 13.3417 11.0488 13.1465 10.8535L12 9.70703V14.293L13.1465 13.1465C13.3417 12.9512 13.6583 12.9512 13.8535 13.1465C14.0488 13.3417 14.0488 13.6583 13.8535 13.8535L11.8535 15.8535C11.6583 16.0488 11.3417 16.0488 11.1465 15.8535L9.14648 13.8535C8.95122 13.6583 8.95122 13.3417 9.14648 13.1465C9.34175 12.9512 9.65825 12.9512 9.85352 13.1465L11 14.293V9.70703L9.85352 10.8535C9.65825 11.0488 9.34175 11.0488 9.14648 10.8535C8.95122 10.6583 8.95122 10.3417 9.14648 10.1465L11.1465 8.14648L11.2246 8.08203ZM17.5 6C17.7761 6 18 6.22386 18 6.5C18 6.77614 17.7761 7 17.5 7H5.5C5.22386 7 5 6.77614 5 6.5C5 6.22386 5.22386 6 5.5 6H17.5Z" fill="#1B1F24" fill-opacity="0.9"/>
</svg>
