<svg width="24" height="24" viewBox="0 0 24 24" fill="none" xmlns="http://www.w3.org/2000/svg">
<path d="M5.99979 17.5C5.99979 17.7761 5.77594 18 5.49979 18C5.22365 18 4.99979 17.7761 4.99979 17.5L4.99979 5.5C4.99979 5.22386 5.22365 5 5.49979 5C5.77594 5 5.99979 5.22386 5.99979 5.5L5.99979 17.5ZM16.9178 11.2246C17.0459 11.4187 17.0242 11.6827 16.8533 11.8535L13.8533 14.8535C13.658 15.0488 13.3415 15.0488 13.1463 14.8535C12.951 14.6583 12.951 14.3417 13.1463 14.1465L15.2928 12L7.49979 12C7.22365 12 6.99979 11.7761 6.99979 11.5C6.99979 11.2239 7.22365 11 7.49979 11L15.2928 11L13.1463 8.85352C12.951 8.65825 12.951 8.34175 13.1463 8.14649C13.3415 7.95122 13.658 7.95122 13.8533 8.14649L16.8533 11.1465L16.9178 11.2246Z" fill="#1B1F24" fill-opacity="0.9"/>
</svg>
