<svg width="24" height="24" viewBox="0 0 24 24" fill="none" xmlns="http://www.w3.org/2000/svg">
<path d="M15.5752 8.12793C17.1441 8.12799 18.3546 9.10844 18.5996 10.5254H17.4746C17.2016 9.66239 16.548 9.12988 15.582 9.12988C14.349 9.12989 13.4092 10.0994 13.4092 11.8604C13.4093 13.6281 14.3431 14.5976 15.625 14.5977C16.789 14.5977 17.5639 13.8556 17.5879 12.6836H15.792V11.7783H18.6504V12.6055C18.6504 14.4415 17.389 15.5986 15.625 15.5986C13.6541 15.5986 12.3194 14.168 12.3193 11.8682C12.3193 9.54516 13.6932 8.12793 15.5752 8.12793ZM9.13281 8.22656L11.75 15.5H10.585L9.91992 13.5752H7.08008L6.41211 15.5H5.24805L7.86523 8.22656H9.13281ZM8.47168 9.54785L7.40039 12.6523H9.59961L8.5293 9.54785H8.47168Z" fill="#1B1F24" fill-opacity="0.9"/>
</svg>
