<svg width="24" height="24" viewBox="0 0 24 24" fill="none" xmlns="http://www.w3.org/2000/svg">
<path d="M18.5 16C18.7761 16 19 16.2238 19 16.5C19 16.7761 18.7761 17 18.5 17H5.5C5.22386 17 5 16.7761 5 16.5C5 16.2238 5.22386 16 5.5 16H18.5ZM18.5 12C18.7761 12 19 12.2238 19 12.5C19 12.7761 18.7761 13 18.5 13H5.5C5.22386 13 5 12.7761 5 12.5C5 12.2238 5.22386 12 5.5 12H18.5ZM7.14648 6.14645C7.34175 5.95118 7.65825 5.95118 7.85352 6.14645L9.85352 8.14645C10.0488 8.34171 10.0488 8.65822 9.85352 8.85348L7.85352 10.8535C7.65825 11.0487 7.34175 11.0487 7.14648 10.8535C6.95122 10.6582 6.95122 10.3417 7.14648 10.1464L8.29297 8.99996H5.5C5.22386 8.99996 5 8.7761 5 8.49996C5 8.22382 5.22386 7.99996 5.5 7.99996H8.29297L7.14648 6.85348C6.95122 6.65822 6.95122 6.34171 7.14648 6.14645ZM18.5 7.99996C18.7761 7.99996 19 8.22382 19 8.49996C19 8.7761 18.7761 8.99996 18.5 8.99996H11.5C11.2239 8.99996 11 8.7761 11 8.49996C11 8.22382 11.2239 7.99996 11.5 7.99996H18.5Z" fill="#1B1F24" fill-opacity="0.9"/>
</svg>
