<svg width="24" height="24" viewBox="0 0 24 24" fill="none" xmlns="http://www.w3.org/2000/svg">
<path d="M18.5 18C18.7761 18 19 18.2239 19 18.5C19 18.7761 18.7761 19 18.5 19H5.5C5.22386 19 5 18.7761 5 18.5C5 18.2239 5.22386 18 5.5 18H18.5ZM15.4395 16H14.4238L13.6191 13.7344H10.3848L9.58008 16H8.56445L11.502 8H12.502L15.4395 16ZM10.6895 12.875H13.3145L12.0332 9.26562H11.9707L10.6895 12.875ZM18.5 5C18.7761 5 19 5.22386 19 5.5C19 5.77614 18.7761 6 18.5 6H5.5C5.22386 6 5 5.77614 5 5.5C5 5.22386 5.22386 5 5.5 5H18.5Z" fill="#1B1F24" fill-opacity="0.9"/>
</svg>
