<svg width="24" height="24" viewBox="0 0 24 24" fill="none" xmlns="http://www.w3.org/2000/svg">
<path d="M6.5 6C6.77614 6 7 6.22386 7 6.5V17.5C7 17.7761 6.77614 18 6.5 18C6.22386 18 6 17.7761 6 17.5V6.5C6 6.22386 6.22386 6 6.5 6ZM17.5 6C17.7761 6 18 6.22386 18 6.5V17.5C18 17.7761 17.7761 18 17.5 18C17.2239 18 17 17.7761 17 17.5V6.5C17 6.22386 17.2239 6 17.5 6ZM12.5 14C12.7761 14 13 14.2239 13 14.5C13 14.7761 12.7761 15 12.5 15H9.5C9.22386 15 9 14.7761 9 14.5C9 14.2239 9.22386 14 9.5 14H12.5ZM14.5 11.5C14.7761 11.5 15 11.7239 15 12C15 12.2761 14.7761 12.5 14.5 12.5H9.5C9.22387 12.5 9.00001 12.2761 9 12C9.00013 11.724 9.22395 11.5 9.5 11.5H14.5ZM14.5 9C14.7761 9 15 9.22387 15 9.5C15 9.77613 14.7761 9.99999 14.5 10H9.5C9.22387 10 9.00001 9.77613 9 9.5C9.00013 9.22398 9.22395 9.00001 9.5 9H14.5Z" fill="#1B1F24" fill-opacity="0.9"/>
</svg>
