<svg width="24" height="24" viewBox="0 0 24 24" fill="none" xmlns="http://www.w3.org/2000/svg">
<path d="M15.326 10.1689C15.6983 10.169 15.9957 10.2314 16.2186 10.3555C16.4415 10.477 16.6136 10.6178 16.7352 10.7773C16.85 10.9249 16.9415 11.051 17.0087 11.1553C17.0187 11.1706 17.0362 11.1797 17.0546 11.1797C17.0841 11.1795 17.1083 11.1556 17.1083 11.126V10.7129C17.1083 10.4549 17.3171 10.2453 17.5751 10.2451H17.6044C17.878 10.2454 18.0995 10.4675 18.0995 10.7412V16.2295C18.0995 16.7311 17.9843 17.1404 17.7538 17.457C17.5258 17.7762 17.2171 18.0121 16.827 18.1641C16.4369 18.3161 16.0007 18.3916 15.5194 18.3916C15.0713 18.3916 14.6867 18.3332 14.3651 18.2168C14.0434 18.1028 13.7765 17.9507 13.5663 17.7607C13.4947 17.6953 13.4291 17.6277 13.369 17.5586C13.1862 17.3486 13.2839 17.0409 13.5292 16.9092C13.7584 16.7863 14.0445 16.8546 14.2186 17.0479C14.2205 17.0499 14.2226 17.0526 14.2245 17.0547C14.346 17.1862 14.5102 17.3003 14.7176 17.3965C14.9253 17.4927 15.1954 17.541 15.5272 17.541C15.9781 17.541 16.3506 17.4303 16.6444 17.21C16.9382 16.9921 17.0848 16.6478 17.0848 16.1768V15.0576C17.0846 15.0313 17.0633 15.0098 17.037 15.0098C17.0198 15.0099 17.0037 15.0193 16.995 15.0342C16.9299 15.1451 16.8401 15.2731 16.7245 15.417C16.6004 15.5689 16.4254 15.7029 16.2001 15.8193C15.9771 15.9333 15.6816 15.9902 15.3143 15.9902C14.8483 15.9902 14.4288 15.8819 14.0565 15.6641C13.6867 15.4437 13.3949 15.1199 13.1796 14.6943C12.9643 14.2688 12.8563 13.7497 12.8563 13.1367C12.8563 12.5288 12.9615 12.0028 13.1717 11.5596C13.382 11.1139 13.6735 10.7709 14.0458 10.5303C14.4181 10.2897 14.8448 10.1689 15.326 10.1689ZM8.79186 8.2998C9.14094 8.2998 9.45294 8.51858 9.57213 8.84668L11.9452 15.3799C12.069 15.7208 11.8167 16.082 11.454 16.082C11.2319 16.0819 11.0342 15.9411 10.9608 15.7314L10.3378 13.9502H7.24401L6.61998 15.7314C6.54652 15.941 6.34789 16.082 6.12584 16.082C5.7633 16.0817 5.51066 15.7207 5.63463 15.3799L8.01159 8.8457C8.13091 8.51787 8.44298 8.29982 8.79186 8.2998ZM15.5008 11.0547C15.1412 11.0547 14.8411 11.1472 14.6005 11.332C14.3598 11.517 14.1781 11.7656 14.0565 12.0771C13.9376 12.3886 13.8788 12.7372 13.8788 13.1221C13.8788 13.5171 13.9389 13.8643 14.0604 14.1631C14.1845 14.4619 14.3663 14.6955 14.6044 14.8652C14.845 15.0324 15.1437 15.1162 15.5008 15.1162C15.8453 15.1162 16.1354 15.0379 16.371 14.8809C16.609 14.7213 16.7898 14.4921 16.9139 14.1934C17.038 13.8946 17.1004 13.5373 17.1005 13.1221C17.1005 12.7142 17.0394 12.3549 16.9178 12.0459C16.7963 11.7371 16.6167 11.495 16.3788 11.3203C16.1407 11.143 15.8479 11.0547 15.5008 11.0547ZM8.79186 9.62207C8.77387 9.62214 8.75794 9.6335 8.75182 9.65039L7.56432 13.0381H10.0184L8.83287 9.65039C8.82679 9.63333 8.80999 9.62207 8.79186 9.62207Z" fill="#1B1F24" fill-opacity="0.9"/>
</svg>
