<svg width="24" height="24" viewBox="0 0 24 24" fill="none" xmlns="http://www.w3.org/2000/svg">
<path fill-rule="evenodd" clip-rule="evenodd" d="M4.28847 11.264C4.43709 9.70816 5.05285 8.23361 6.05486 7.03409C7.05687 5.83456 8.39827 4.96617 9.90285 4.54296C11.4074 4.11976 13.0048 4.16155 14.4852 4.66283C15.9656 5.16412 17.2598 6.10146 18.1977 7.35173H15.0989C14.8934 7.35173 14.6963 7.43335 14.5511 7.57863C14.4058 7.72392 14.3241 7.92098 14.3241 8.12644C14.3241 8.33191 14.4058 8.52896 14.5511 8.67425C14.6963 8.81954 14.8934 8.90116 15.0989 8.90116H20.5219C20.7274 8.90116 20.9244 8.81954 21.0697 8.67425C21.215 8.52896 21.2966 8.33191 21.2966 8.12644V3.47814C21.2966 3.27267 21.215 3.07562 21.0697 2.93034C20.9244 2.78505 20.7274 2.70343 20.5219 2.70343C20.3164 2.70343 20.1194 2.78505 19.9741 2.93034C19.8288 3.07562 19.7472 3.27267 19.7472 3.47814V6.86056C18.685 5.25915 17.1526 4.02625 15.361 3.33149C13.5693 2.63674 11.6063 2.51427 9.74221 2.98094C7.87807 3.44761 6.20436 4.48048 4.95136 5.93745C3.69835 7.39441 2.92763 9.20387 2.74523 11.1169C2.72571 11.3215 2.78829 11.5255 2.91919 11.684C3.0501 11.8425 3.23861 11.9425 3.44325 11.9621C3.6479 11.9816 3.85192 11.919 4.01043 11.7881C4.16894 11.6572 4.26895 11.4687 4.28847 11.264ZM21.2548 12.8817C21.2743 12.677 21.2117 12.473 21.0808 12.3145C20.9499 12.156 20.7614 12.056 20.5567 12.0364C20.3521 12.0169 20.1481 12.0795 19.9896 12.2104C19.8311 12.3413 19.731 12.5298 19.7115 12.7345C19.5632 14.2905 18.9476 15.7652 17.9457 16.965C16.9438 18.1647 15.6024 19.0333 14.0978 19.4567C12.5931 19.8801 10.9956 19.8384 9.5151 19.3372C8.03458 18.836 6.74029 17.8986 5.80227 16.6483H8.90113C9.1066 16.6483 9.30365 16.5667 9.44894 16.4214C9.59423 16.2761 9.67585 16.0791 9.67585 15.8736C9.67585 15.6681 9.59423 15.4711 9.44894 15.3258C9.30365 15.1805 9.1066 15.0989 8.90113 15.0989H3.47812C3.27265 15.0989 3.0756 15.1805 2.93031 15.3258C2.78502 15.4711 2.7034 15.6681 2.7034 15.8736V20.5219C2.7034 20.7274 2.78502 20.9244 2.93031 21.0697C3.0756 21.215 3.27265 21.2966 3.47812 21.2966C3.68358 21.2966 3.88064 21.215 4.02592 21.0697C4.17121 20.9244 4.25283 20.7274 4.25283 20.5219V17.1395C5.31503 18.7409 6.84738 19.9738 8.63905 20.6686C10.4307 21.3633 12.3937 21.4858 14.2578 21.0191C16.1219 20.5524 17.7956 19.5196 19.0486 18.0626C20.3016 16.6056 21.0724 14.7946 21.2548 12.8817Z" fill="#1B1F24"/>
</svg>
