<svg width="24" height="24" viewBox="0 0 24 24" fill="none" xmlns="http://www.w3.org/2000/svg">
<path fill-rule="evenodd" clip-rule="evenodd" d="M7.023 11.525C7.11892 10.5209 7.51633 9.56919 8.16302 8.79502C8.80972 8.02085 9.67545 7.46039 10.6465 7.18725C11.6176 6.91412 12.6485 6.94109 13.604 7.26462C14.5594 7.58814 15.3947 8.1931 16 9.00002H14C13.8674 9.00002 13.7402 9.0527 13.6464 9.14647C13.5527 9.24024 13.5 9.36741 13.5 9.50002C13.5 9.63263 13.5527 9.75981 13.6464 9.85357C13.7402 9.94734 13.8674 10 14 10H17.5C17.6326 10 17.7598 9.94734 17.8536 9.85357C17.9473 9.75981 18 9.63263 18 9.50002V6.50002C18 6.36741 17.9473 6.24024 17.8536 6.14647C17.7598 6.0527 17.6326 6.00002 17.5 6.00002C17.3674 6.00002 17.2402 6.0527 17.1464 6.14647C17.0527 6.24024 17 6.36741 17 6.50002V8.68302C16.3145 7.64948 15.3255 6.85377 14.1691 6.40537C13.0128 5.95698 11.7459 5.87794 10.5428 6.17913C9.33972 6.48031 8.25951 7.14693 7.45083 8.08725C6.64214 9.02757 6.14472 10.1954 6.027 11.43C6.0144 11.5621 6.05479 11.6938 6.13927 11.7961C6.22376 11.8984 6.34542 11.9629 6.4775 11.9755C6.60958 11.9881 6.74125 11.9477 6.84355 11.8632C6.94585 11.7788 7.0104 11.6571 7.023 11.525ZM17.973 12.569C17.9856 12.4369 17.9452 12.3053 17.8607 12.203C17.7762 12.1007 17.6546 12.0361 17.5225 12.0235C17.3904 12.0109 17.2587 12.0513 17.1564 12.1358C17.0541 12.2203 16.9896 12.3419 16.977 12.474C16.8813 13.4783 16.484 14.4301 15.8373 15.2044C15.1907 15.9787 14.325 16.5393 13.3539 16.8125C12.3828 17.0858 11.3518 17.0589 10.3963 16.7354C9.44073 16.4119 8.6054 15.807 8 15H10C10.1326 15 10.2598 14.9473 10.3536 14.8536C10.4473 14.7598 10.5 14.6326 10.5 14.5C10.5 14.3674 10.4473 14.2402 10.3536 14.1465C10.2598 14.0527 10.1326 14 10 14H6.5C6.36739 14 6.24021 14.0527 6.14645 14.1465C6.05268 14.2402 6 14.3674 6 14.5V17.5C6 17.6326 6.05268 17.7598 6.14645 17.8536C6.24021 17.9473 6.36739 18 6.5 18C6.63261 18 6.75979 17.9473 6.85355 17.8536C6.94732 17.7598 7 17.6326 7 17.5V15.317C7.68554 16.3506 8.67451 17.1463 9.83085 17.5947C10.9872 18.0431 12.2541 18.1221 13.4572 17.8209C14.6603 17.5197 15.7405 16.8531 16.5492 15.9128C17.3579 14.9725 17.8553 13.8037 17.973 12.569Z" fill="#1B1F24"/>
</svg>
