<svg width="24" height="24" viewBox="0 0 24 24" fill="none" xmlns="http://www.w3.org/2000/svg">
<path d="M18.5 6C18.6326 6 18.7598 6.05268 18.8536 6.14645C18.9473 6.24021 19 6.36739 19 6.5C19 6.63261 18.9473 6.75979 18.8536 6.85355C18.7598 6.94732 18.6326 7 18.5 7H6.5C6.36739 7 6.24021 6.94732 6.14645 6.85355C6.05268 6.75979 6 6.63261 6 6.5C6 6.36739 6.05268 6.24021 6.14645 6.14645C6.24021 6.05268 6.36739 6 6.5 6H18.5Z" fill="#1B1F24"/>
<path d="M9 12.25C9 12.664 9.336 13 9.75 13H15.25C15.4489 13 15.6397 12.921 15.7803 12.7803C15.921 12.6397 16 12.4489 16 12.25V11.75C16 11.5511 15.921 11.3603 15.7803 11.2197C15.6397 11.079 15.4489 11 15.25 11H9.75C9.55109 11 9.36032 11.079 9.21967 11.2197C9.07902 11.3603 9 11.5511 9 11.75V12.25Z" fill="#1B1F24"/>
<path d="M18.5 17C18.6326 17 18.7598 17.0527 18.8536 17.1464C18.9473 17.2402 19 17.3674 19 17.5C19 17.6326 18.9473 17.7598 18.8536 17.8536C18.7598 17.9473 18.6326 18 18.5 18H6.5C6.36739 18 6.24021 17.9473 6.14645 17.8536C6.05268 17.7598 6 17.6326 6 17.5C6 17.3674 6.05268 17.2402 6.14645 17.1464C6.24021 17.0527 6.36739 17 6.5 17H18.5Z" fill="#1B1F24"/>
</svg>
