<svg width="24" height="24" viewBox="0 0 24 24" fill="none" xmlns="http://www.w3.org/2000/svg">
<path d="M14.8301 10.1699C15.2025 10.1699 15.5007 10.2323 15.7236 10.3564C15.9463 10.478 16.1187 10.6188 16.2402 10.7783C16.3548 10.9256 16.4457 11.0512 16.5127 11.1553C16.5227 11.1708 16.5401 11.1807 16.5586 11.1807C16.5882 11.1806 16.6122 11.1566 16.6123 11.127V10.7129C16.6125 10.455 16.8221 10.2461 17.0801 10.2461H17.1084C17.3822 10.2462 17.6045 10.4684 17.6045 10.7422V16.2305C17.6045 16.732 17.4883 17.1414 17.2578 17.458C17.0299 17.777 16.721 18.0121 16.3311 18.1641C15.941 18.316 15.5056 18.3925 15.0244 18.3926C14.5761 18.3926 14.1908 18.3343 13.8691 18.2178C13.5475 18.1038 13.2815 17.9516 13.0713 17.7617C12.9996 17.6961 12.9333 17.6288 12.873 17.5596C12.6902 17.3494 12.7887 17.0408 13.0342 16.9092C13.2634 16.7867 13.5487 16.8557 13.7227 17.0488C13.7245 17.0509 13.7267 17.0526 13.7285 17.0547C13.8501 17.1864 14.0149 17.3012 14.2227 17.3975C14.4302 17.4935 14.6998 17.541 15.0312 17.541C15.482 17.541 15.8546 17.4312 16.1484 17.2109C16.4422 16.9932 16.5897 16.6487 16.5898 16.1777V15.0586C16.5898 15.0323 16.5682 15.011 16.542 15.0107C16.5247 15.0107 16.5088 15.0203 16.5 15.0352C16.435 15.1461 16.3441 15.2731 16.2285 15.417C16.1044 15.569 15.9296 15.7038 15.7041 15.8203C15.4813 15.9342 15.1863 15.9912 14.8193 15.9912C14.3533 15.9912 13.9339 15.8819 13.5615 15.6641C13.1917 15.4437 12.8989 15.1209 12.6836 14.6953C12.4683 14.2698 12.3604 13.7506 12.3604 13.1377C12.3604 12.5297 12.4655 12.0038 12.6758 11.5605C12.886 11.1148 13.1775 10.7719 13.5498 10.5312C13.9221 10.2906 14.3489 10.17 14.8301 10.1699ZM8.94531 10.1699C9.15551 10.1699 9.38739 10.1954 9.64062 10.2461C9.89387 10.2942 10.1344 10.3894 10.3623 10.5312C10.5928 10.6706 10.7832 10.8768 10.9326 11.1504C11.082 11.4214 11.1562 11.7785 11.1562 12.2217V15.5811C11.1561 15.8578 10.932 16.0819 10.6553 16.082H10.5508C10.3316 16.082 10.1535 15.9047 10.1533 15.6855V15.3164C10.1533 15.3009 10.1405 15.2881 10.125 15.2881C10.1144 15.2882 10.1044 15.2942 10.0996 15.3037C10.0334 15.4355 9.93083 15.5711 9.79199 15.71C9.64765 15.8517 9.45943 15.9726 9.22656 16.0713C8.99351 16.1675 8.71075 16.2148 8.37891 16.2148C8.00909 16.2148 7.6735 16.1452 7.37207 16.0059C7.07322 15.8665 6.83452 15.6658 6.65723 15.4023C6.48251 15.1364 6.39555 14.812 6.39551 14.4297C6.39551 14.0979 6.45974 13.8264 6.58887 13.6162C6.72057 13.4035 6.89548 13.2358 7.11328 13.1143C7.33113 12.9927 7.57386 12.9016 7.83984 12.8408C8.10558 12.7801 8.37511 12.7331 8.64844 12.7002C9.00054 12.6546 9.28606 12.6191 9.50391 12.5938C9.72415 12.5684 9.88504 12.527 9.98633 12.4688C10.0875 12.4105 10.1386 12.3106 10.1387 12.1689V12.1377C10.1386 11.7858 10.0407 11.5123 9.8457 11.3174C9.65065 11.1223 9.35788 11.0244 8.96777 11.0244C8.56266 11.0244 8.24512 11.1138 8.01465 11.291C7.92324 11.3613 7.84236 11.4343 7.77246 11.5098C7.60138 11.6946 7.34763 11.8211 7.10547 11.752C6.81854 11.6699 6.65861 11.3517 6.83008 11.1074C6.92454 10.9729 7.03151 10.8552 7.15137 10.7549C7.40211 10.5447 7.68222 10.3953 7.99121 10.3066C8.30279 10.2154 8.62107 10.1699 8.94531 10.1699ZM9.89844 13.3047C9.77694 13.3401 9.63736 13.3702 9.48047 13.3955C9.32624 13.4208 9.17457 13.4436 9.02539 13.4639C8.87848 13.4816 8.75641 13.4971 8.66016 13.5098C8.43471 13.5402 8.22572 13.5884 8.0332 13.6543C7.84322 13.7202 7.68977 13.8181 7.57324 13.9473C7.45945 14.0739 7.40234 14.2448 7.40234 14.46C7.40238 14.7563 7.51305 14.9809 7.7334 15.1328C7.95371 15.2821 8.23267 15.3564 8.56934 15.3564C8.90601 15.3564 9.19089 15.2908 9.42383 15.1592C9.65688 15.0275 9.83446 14.8558 9.95605 14.6455C10.08 14.4354 10.1416 14.2115 10.1416 13.9736V13.46C10.1416 13.362 9.99252 13.2772 9.89844 13.3047ZM15.0049 11.0557C14.6453 11.0557 14.3451 11.1481 14.1045 11.333C13.864 11.5178 13.6831 11.7658 13.5615 12.0771C13.4425 12.3887 13.3828 12.7371 13.3828 13.1221C13.3828 13.5172 13.4439 13.8642 13.5654 14.1631C13.6895 14.462 13.8703 14.6965 14.1084 14.8662C14.349 15.0334 14.6478 15.1172 15.0049 15.1172C15.3493 15.1172 15.6395 15.0388 15.875 14.8818C16.1131 14.7222 16.2948 14.4923 16.4189 14.1934C16.5429 13.8946 16.6045 13.5373 16.6045 13.1221C16.6045 12.7143 16.5434 12.3559 16.4219 12.0469C16.3003 11.738 16.1208 11.496 15.8828 11.3213C15.6447 11.144 15.3519 11.0557 15.0049 11.0557Z" fill="#1B1F24" fill-opacity="0.9"/>
</svg>
