<svg width="24" height="24" viewBox="0 0 24 24" fill="none" xmlns="http://www.w3.org/2000/svg">
<path d="M4.5 6C4.77614 6 5 6.22386 5 6.5V17.5C5 17.7761 4.77614 18 4.5 18C4.22386 18 4 17.7761 4 17.5V6.5C4 6.22386 4.22386 6 4.5 6ZM19.5 6C19.7761 6 20 6.22386 20 6.5V17.5C20 17.7761 19.7761 18 19.5 18C19.2239 18 19 17.7761 19 17.5V6.5C19 6.22386 19.2239 6 19.5 6ZM15.4395 16H14.4238L13.6191 13.7344H10.3848L9.58008 16H8.56445L11.502 8H12.502L15.4395 16ZM10.6895 12.875H13.3145L12.0332 9.26562H11.9707L10.6895 12.875Z" fill="#1B1F24" fill-opacity="0.9"/>
</svg>
