<svg width="24" height="24" viewBox="0 0 24 24" fill="none" xmlns="http://www.w3.org/2000/svg">
<path fill-rule="evenodd" clip-rule="evenodd" d="M5 6.75C5 6.55109 5.07902 6.36032 5.21967 6.21967C5.36032 6.07902 5.55109 6 5.75 6H17.25C17.4489 6 17.6397 6.07902 17.7803 6.21967C17.921 6.36032 18 6.55109 18 6.75V7.25C18 7.44891 17.921 7.63968 17.7803 7.78033C17.6397 7.92098 17.4489 8 17.25 8H5.75C5.55109 8 5.36032 7.92098 5.21967 7.78033C5.07902 7.63968 5 7.44891 5 7.25V6.75ZM5 11.75C5 11.5511 5.07902 11.3603 5.21967 11.2197C5.36032 11.079 5.55109 11 5.75 11H17.25C17.4489 11 17.6397 11.079 17.7803 11.2197C17.921 11.3603 18 11.5511 18 11.75V12.25C18 12.4489 17.921 12.6397 17.7803 12.7803C17.6397 12.921 17.4489 13 17.25 13H5.75C5.55109 13 5.36032 12.921 5.21967 12.7803C5.07902 12.6397 5 12.4489 5 12.25V11.75ZM5.75 16C5.55109 16 5.36032 16.079 5.21967 16.2197C5.07902 16.3603 5 16.5511 5 16.75V17.25C5 17.664 5.336 18 5.75 18H17.25C17.4489 18 17.6397 17.921 17.7803 17.7803C17.921 17.6397 18 17.4489 18 17.25V16.75C18 16.5511 17.921 16.3603 17.7803 16.2197C17.6397 16.079 17.4489 16 17.25 16H5.75Z" fill="#1B1F24"/>
</svg>
