<svg width="24" height="24" viewBox="0 0 24 24" fill="none" xmlns="http://www.w3.org/2000/svg">
<path d="M17.5 17.0005C17.7761 17.0005 18 17.2243 18 17.5005C17.9997 17.7764 17.776 18.0005 17.5 18.0005H6.5C6.22401 18.0005 6.00025 17.7764 6 17.5005C6 17.2243 6.22386 17.0005 6.5 17.0005H17.5ZM15.5 6.00049C15.7761 6.00049 16 6.22435 16 6.50049V11.0005C16 13.2096 14.2091 15.0005 12 15.0005C9.79086 15.0005 8 13.2096 8 11.0005V6.50049C8 6.22435 8.22386 6.00049 8.5 6.00049C8.77614 6.00049 9 6.22435 9 6.50049V11.0005C9 12.6573 10.3431 14.0005 12 14.0005C13.6569 14.0005 15 12.6573 15 11.0005V6.50049C15 6.22435 15.2239 6.00049 15.5 6.00049Z" fill="#1B1F24" fill-opacity="0.9"/>
</svg>
